<svg width="100" height="101" viewBox="0 0 100 101" fill="none" xmlns="http://www.w3.org/2000/svg">
<path d="M49.845 100.551C77.0911 100.551 99.6501 77.9434 99.6501 50.7461C99.6501 23.5 77.0423 0.941406 49.7962 0.941406C22.5989 0.941406 0.0402832 23.5 0.0402832 50.7461C0.0402832 77.9434 22.6478 100.551 49.845 100.551ZM49.845 92.25C26.7981 92.25 8.38985 73.793 8.38985 50.7461C8.38985 27.6992 26.7493 9.24221 49.7962 9.24221C72.8431 9.24221 91.3001 27.6992 91.3491 50.7461C91.3981 73.793 72.8919 92.25 49.845 92.25ZM33.1458 71.4492C34.2689 71.4492 35.2454 71.0098 35.9778 70.2285L49.7962 56.3125L63.7122 70.2285C64.4446 70.9609 65.3724 71.4492 66.4954 71.4492C68.6439 71.4492 70.4017 69.6426 70.4017 67.4941C70.4017 66.3711 70.011 65.4434 69.2298 64.7109L55.3626 50.8438L69.2786 36.8789C70.1087 36.0488 70.4505 35.2188 70.4505 34.1445C70.4505 31.9473 68.6927 30.2383 66.5442 30.2383C65.5189 30.2383 64.6888 30.5801 63.8587 31.4102L49.7962 45.375L35.8802 31.459C35.1478 30.6777 34.2689 30.3359 33.1458 30.3359C30.9974 30.3359 29.2396 31.9961 29.2396 34.1934C29.2396 35.2676 29.679 36.1953 30.4114 36.9277L44.2786 50.8438L30.4114 64.7598C29.679 65.4434 29.2396 66.4199 29.2396 67.4941C29.2396 69.6426 30.9974 71.4492 33.1458 71.4492Z" fill="black"/>
</svg>
