<svg width="93" height="94" viewBox="0 0 93 94" fill="none" xmlns="http://www.w3.org/2000/svg">
<path d="M38.4194 75.627C46.5737 75.627 54.0932 72.9902 60.2456 68.5957L83.3901 91.7402C84.4643 92.8144 85.8803 93.3516 87.394 93.3516C90.5681 93.3516 92.8141 90.9102 92.8141 87.7852C92.8141 86.3203 92.3261 84.9531 91.2511 83.8789L68.2534 60.832C73.0874 54.4844 75.9682 46.623 75.9682 38.0781C75.9682 17.4238 59.0737 0.529297 38.4194 0.529297C17.8139 0.529297 0.870605 17.375 0.870605 38.0781C0.870605 58.7324 17.7651 75.627 38.4194 75.627ZM38.4194 67.5215C22.3061 67.5215 8.976 54.1914 8.976 38.0781C8.976 21.9648 22.3061 8.6348 38.4194 8.6348C54.5327 8.6348 67.8628 21.9648 67.8628 38.0781C67.8628 54.1914 54.5327 67.5215 38.4194 67.5215Z" fill="black"/>
</svg>
