<svg width="22" height="22" viewBox="0 0 22 22" fill="none" xmlns="http://www.w3.org/2000/svg">
<path d="M11 3C6.58065 3 3 6.58065 3 11C3 15.4194 6.58065 19 11 19C15.4194 19 19 15.4194 19 11C19 6.58065 15.4194 3 11 3ZM11 17.4516C7.44194 17.4516 4.54839 14.5581 4.54839 11C4.54839 7.44194 7.44194 4.54839 11 4.54839C14.5581 4.54839 17.4516 7.44194 17.4516 11C17.4516 14.5581 14.5581 17.4516 11 17.4516ZM8.41935 10.4839C8.99032 10.4839 9.45161 10.0226 9.45161 9.45161C9.45161 8.88064 8.99032 8.41935 8.41935 8.41935C7.84839 8.41935 7.3871 8.88064 7.3871 9.45161C7.3871 10.0226 7.84839 10.4839 8.41935 10.4839ZM13.5806 10.4839C14.1516 10.4839 14.6129 10.0226 14.6129 9.45161C14.6129 8.88064 14.1516 8.41935 13.5806 8.41935C13.0097 8.41935 12.5484 8.88064 12.5484 9.45161C12.5484 10.0226 13.0097 10.4839 13.5806 10.4839ZM13.7097 12.8258C13.0387 13.6323 12.0484 14.0968 11 14.0968C9.95161 14.0968 8.96129 13.6355 8.29032 12.8258C8.01613 12.4968 7.52581 12.4548 7.2 12.7258C6.87097 13 6.82903 13.4871 7.1 13.8161C8.06774 14.9774 9.49032 15.6419 11 15.6419C12.5097 15.6419 13.9323 14.9774 14.9 13.8161C15.1742 13.4871 15.129 13 14.8 12.7258C14.4742 12.4548 13.9839 12.4968 13.7097 12.8258V12.8258Z" fill="white"/>
</svg>
